<?xml version="1.0" encoding="UTF-8" standalone="no"?>
<!DOCTYPE svg PUBLIC "-//W3C//DTD SVG 1.1//EN"
 "http://www.w3.org/Graphics/SVG/1.1/DTD/svg11.dtd">
<!-- Generated by graphviz version 14.1.1 (20251213.1925)
 -->
<!-- Pages: 1 -->
<svg width="1217pt" height="599pt"
 viewBox="0.00 0.00 1217.00 599.00" xmlns="http://www.w3.org/2000/svg" xmlns:xlink="http://www.w3.org/1999/xlink">
<g id="graph0" class="graph" transform="scale(1 1) rotate(0) translate(4 595.38)">
<polygon fill="#ffffff" stroke="none" points="-4,4 -4,-595.38 1212.75,-595.38 1212.75,4 -4,4"/>
<!-- X1 -->
<g id="node1" class="node wv&#45;part wv&#45;dsg&#45;X1">
<title>X1</title>
<polygon fill="#ffffff" stroke="black" points="257,-450 0,-450 0,-181 257,-181 257,-450"/>
<polygon fill="none" stroke="black" points="0,-426.25 0,-450 257,-450 257,-426.25 0,-426.25"/>
<text xml:space="preserve" text-anchor="start" x="120.25" y="-432.7" font-family="arial" font-size="14.00">X1</text>
<polygon fill="none" stroke="black" points="0,-402.5 0,-426.25 129.62,-426.25 129.62,-402.5 0,-402.5"/>
<text xml:space="preserve" text-anchor="start" x="12.69" y="-408.95" font-family="arial" font-size="14.00">Molex: 22013047</text>
<polygon fill="none" stroke="black" points="129.62,-402.5 129.62,-426.25 257,-426.25 257,-402.5 129.62,-402.5"/>
<text xml:space="preserve" text-anchor="start" x="142.31" y="-408.95" font-family="arial" font-size="14.00">Digimouse: 1234</text>
<polygon fill="none" stroke="black" points="0,-378.75 0,-402.5 118.42,-402.5 118.42,-378.75 0,-378.75"/>
<text xml:space="preserve" text-anchor="start" x="16.83" y="-385.2" font-family="arial" font-size="14.00">Molex KK 254</text>
<polygon fill="none" stroke="black" points="118.42,-378.75 118.42,-402.5 193.33,-402.5 193.33,-378.75 118.42,-378.75"/>
<text xml:space="preserve" text-anchor="start" x="135.25" y="-385.2" font-family="arial" font-size="14.00">female</text>
<polygon fill="none" stroke="black" points="193.33,-378.75 193.33,-402.5 257,-402.5 257,-378.75 193.33,-378.75"/>
<text xml:space="preserve" text-anchor="start" x="210.17" y="-385.2" font-family="arial" font-size="14.00">4&#45;pin</text>
<polygon fill="none" stroke="black" points="0,-355 0,-378.75 257,-378.75 257,-355 0,-355"/>
<text xml:space="preserve" text-anchor="start" x="124.75" y="-361.45" font-family="arial" font-size="14.00">1</text>
<polygon fill="none" stroke="black" points="0,-331.25 0,-355 257,-355 257,-331.25 0,-331.25"/>
<text xml:space="preserve" text-anchor="start" x="124.75" y="-337.7" font-family="arial" font-size="14.00">2</text>
<polygon fill="none" stroke="black" points="0,-307.5 0,-331.25 257,-331.25 257,-307.5 0,-307.5"/>
<text xml:space="preserve" text-anchor="start" x="124.75" y="-313.95" font-family="arial" font-size="14.00">3</text>
<polygon fill="none" stroke="black" points="0,-283.75 0,-307.5 257,-307.5 257,-283.75 0,-283.75"/>
<text xml:space="preserve" text-anchor="start" x="124.75" y="-290.2" font-family="arial" font-size="14.00">4</text>
<polygon fill="none" stroke="black" points="0,-260 0,-283.75 257,-283.75 257,-260 0,-260"/>
<text xml:space="preserve" text-anchor="start" x="59.88" y="-266.45" font-family="arial" font-size="14.00">Additional components</text>
<polygon fill="none" stroke="black" points="0,-220.5 0,-260 257,-260 257,-220.5 0,-220.5"/>
<text xml:space="preserve" text-anchor="start" x="4" y="-242.7" font-family="arial" font-size="14.00">4 x Crimp, Molex KK 254, 22&#45;30 AWG</text>
<text xml:space="preserve" text-anchor="start" x="4" y="-226.95" font-family="arial" font-size="14.00">Molex: 08500030</text>
<polygon fill="none" stroke="black" points="0,-181 0,-220.5 257,-220.5 257,-181 0,-181"/>
<text xml:space="preserve" text-anchor="start" x="4" y="-203.2" font-family="arial" font-size="14.00">1 x Test</text>
<text xml:space="preserve" text-anchor="start" x="4" y="-187.45" font-family="arial" font-size="14.00">P/N: ABC, Molex: 45454, Mousikey: 9999</text>
</g>
<!-- W1 -->
<g id="node4" class="node wv&#45;part wv&#45;dsg&#45;W1">
<title>W1</title>
<polygon fill="#ffffff" stroke="black" points="766.25,-591.38 401,-591.38 401,-377.62 766.25,-377.62 766.25,-591.38"/>
<polygon fill="none" stroke="black" points="401,-567.62 401,-591.38 766.25,-591.38 766.25,-567.62 401,-567.62"/>
<text xml:space="preserve" text-anchor="start" x="573.12" y="-574.08" font-family="arial" font-size="14.00">W1</text>
<polygon fill="none" stroke="black" points="401,-543.88 401,-567.62 474.25,-567.62 474.25,-543.88 401,-543.88"/>
<text xml:space="preserve" text-anchor="start" x="405" y="-550.33" font-family="arial" font-size="14.00">P/N: CAB1</text>
<polygon fill="none" stroke="black" points="474.25,-543.88 474.25,-567.62 598.5,-567.62 598.5,-543.88 474.25,-543.88"/>
<text xml:space="preserve" text-anchor="start" x="478.25" y="-550.33" font-family="arial" font-size="14.00">CablesCo: ABC123</text>
<polygon fill="none" stroke="black" points="598.5,-543.88 598.5,-567.62 766.25,-567.62 766.25,-543.88 598.5,-543.88"/>
<text xml:space="preserve" text-anchor="start" x="602.5" y="-550.33" font-family="arial" font-size="14.00">Cables R Us: 999&#45;888&#45;777</text>
<polygon fill="none" stroke="black" points="401,-520.12 401,-543.88 505,-543.88 505,-520.12 401,-520.12"/>
<text xml:space="preserve" text-anchor="start" x="445.88" y="-526.58" font-family="arial" font-size="14.00">4x</text>
<polygon fill="none" stroke="black" points="505,-520.12 505,-543.88 653.25,-543.88 653.25,-520.12 505,-520.12"/>
<text xml:space="preserve" text-anchor="start" x="549.88" y="-526.58" font-family="arial" font-size="14.00">0.25 mm²</text>
<polygon fill="none" stroke="black" points="653.25,-520.12 653.25,-543.88 766.25,-543.88 766.25,-520.12 653.25,-520.12"/>
<text xml:space="preserve" text-anchor="start" x="698.12" y="-526.58" font-family="arial" font-size="14.00">1 m</text>
<text xml:space="preserve" text-anchor="start" x="453.38" y="-504.82" font-family="arial" font-size="14.00"> </text>
<text xml:space="preserve" text-anchor="start" x="441.38" y="-485.07" font-family="arial" font-size="14.00">X1:1</text>
<text xml:space="preserve" text-anchor="start" x="551.75" y="-485.07" font-family="arial" font-size="14.00"> &#160;&#160;&#160;&#160;1:BN &#160;&#160;&#160;</text>
<text xml:space="preserve" text-anchor="start" x="698.12" y="-485.07" font-family="arial" font-size="14.00">X2:1</text>
<polygon fill="#000000" stroke="none" points="401,-478.62 401,-480.62 766.25,-480.62 766.25,-478.62 401,-478.62"/>
<polygon fill="#895956" stroke="none" points="401,-476.62 401,-478.62 766.25,-478.62 766.25,-476.62 401,-476.62"/>
<polygon fill="#000000" stroke="none" points="401,-474.62 401,-476.62 766.25,-476.62 766.25,-474.62 401,-474.62"/>
<text xml:space="preserve" text-anchor="start" x="441.38" y="-459.32" font-family="arial" font-size="14.00">X1:2</text>
<text xml:space="preserve" text-anchor="start" x="551.38" y="-459.32" font-family="arial" font-size="14.00"> &#160;&#160;&#160;&#160;2:RD &#160;&#160;&#160;</text>
<text xml:space="preserve" text-anchor="start" x="698.12" y="-459.32" font-family="arial" font-size="14.00">X2:2</text>
<polygon fill="#000000" stroke="none" points="401,-452.88 401,-454.88 766.25,-454.88 766.25,-452.88 401,-452.88"/>
<polygon fill="#ff0000" stroke="none" points="401,-450.88 401,-452.88 766.25,-452.88 766.25,-450.88 401,-450.88"/>
<polygon fill="#000000" stroke="none" points="401,-448.88 401,-450.88 766.25,-450.88 766.25,-448.88 401,-448.88"/>
<text xml:space="preserve" text-anchor="start" x="441.38" y="-433.57" font-family="arial" font-size="14.00">X1:3</text>
<text xml:space="preserve" text-anchor="start" x="549.88" y="-433.57" font-family="arial" font-size="14.00"> &#160;&#160;&#160;&#160;3:OG &#160;&#160;&#160;</text>
<text xml:space="preserve" text-anchor="start" x="698.12" y="-433.57" font-family="arial" font-size="14.00">X2:3</text>
<polygon fill="#000000" stroke="none" points="401,-427.12 401,-429.12 766.25,-429.12 766.25,-427.12 401,-427.12"/>
<polygon fill="#ff8000" stroke="none" points="401,-425.12 401,-427.12 766.25,-427.12 766.25,-425.12 401,-425.12"/>
<polygon fill="#000000" stroke="none" points="401,-423.12 401,-425.12 766.25,-425.12 766.25,-423.12 401,-423.12"/>
<text xml:space="preserve" text-anchor="start" x="441.38" y="-407.82" font-family="arial" font-size="14.00">X1:4</text>
<text xml:space="preserve" text-anchor="start" x="552.12" y="-407.82" font-family="arial" font-size="14.00"> &#160;&#160;&#160;&#160;4:YE &#160;&#160;&#160;</text>
<text xml:space="preserve" text-anchor="start" x="698.12" y="-407.82" font-family="arial" font-size="14.00">X2:4</text>
<polygon fill="#000000" stroke="none" points="401,-401.38 401,-403.38 766.25,-403.38 766.25,-401.38 401,-401.38"/>
<polygon fill="#ffff00" stroke="none" points="401,-399.38 401,-401.38 766.25,-401.38 766.25,-399.38 401,-399.38"/>
<polygon fill="#000000" stroke="none" points="401,-397.38 401,-399.38 766.25,-399.38 766.25,-397.38 401,-397.38"/>
<text xml:space="preserve" text-anchor="start" x="453.38" y="-382.07" font-family="arial" font-size="14.00"> </text>
</g>
<!-- X1&#45;&#45;W1 -->
<g id="edge1" class="edge wv&#45;wire wv&#45;net&#45;W1&#45;w1 wv&#45;net&#45;X1&#45;p1">
<title>X1:e&#45;&#45;W1:w</title>
<path fill="none" stroke="#000000" stroke-width="2" d="M257,-364.88C339.71,-367.19 322.24,-477.94 401,-475.63"/>
<path fill="none" stroke="#895956" stroke-width="2" d="M257,-366.88C337.74,-366.88 320.26,-477.63 401,-477.63"/>
<path fill="none" stroke="#000000" stroke-width="2" d="M257,-368.87C335.76,-366.56 318.29,-477.31 401,-479.62"/>
</g>
<!-- X1&#45;&#45;W1 -->
<g id="edge3" class="edge wv&#45;wire wv&#45;net&#45;W1&#45;w2 wv&#45;net&#45;X1&#45;p2">
<title>X1:e&#45;&#45;W1:w</title>
<path fill="none" stroke="#000000" stroke-width="2" d="M257,-341.13C339.18,-343.42 322.78,-452.17 401,-449.88"/>
<path fill="none" stroke="#ff0000" stroke-width="2" d="M257,-343.12C337.2,-343.12 320.8,-451.88 401,-451.87"/>
<path fill="none" stroke="#000000" stroke-width="2" d="M257,-345.12C335.22,-342.83 318.82,-451.58 401,-453.87"/>
</g>
<!-- X1&#45;&#45;W1 -->
<g id="edge5" class="edge wv&#45;wire wv&#45;net&#45;W1&#45;w3 wv&#45;net&#45;X1&#45;p3">
<title>X1:e&#45;&#45;W1:w</title>
<path fill="none" stroke="#000000" stroke-width="2" d="M257,-317.38C338.65,-319.66 323.31,-426.41 401,-424.13"/>
<path fill="none" stroke="#ff8000" stroke-width="2" d="M257,-319.38C336.67,-319.38 321.33,-426.12 401,-426.13"/>
<path fill="none" stroke="#000000" stroke-width="2" d="M257,-321.37C334.69,-319.09 319.35,-425.84 401,-428.12"/>
</g>
<!-- X1&#45;&#45;W1 -->
<g id="edge7" class="edge wv&#45;wire wv&#45;net&#45;W1&#45;w4 wv&#45;net&#45;X1&#45;p4">
<title>X1:e&#45;&#45;W1:w</title>
<path fill="none" stroke="#000000" stroke-width="2" d="M257,-293.63C338.12,-295.9 323.84,-400.65 401,-398.38"/>
<path fill="none" stroke="#ffff00" stroke-width="2" d="M257,-295.62C336.14,-295.62 321.86,-400.38 401,-400.38"/>
<path fill="none" stroke="#000000" stroke-width="2" d="M257,-297.62C334.16,-295.35 319.88,-400.1 401,-402.37"/>
</g>
<!-- W2 -->
<g id="node5" class="node wv&#45;part wv&#45;dsg&#45;W2">
<title>W2</title>
<polygon fill="#ffffff" stroke="black" stroke-dasharray="5,2" points="732.62,-353.62 434.62,-353.62 434.62,-5.38 732.62,-5.38 732.62,-353.62"/>
<polygon fill="none" stroke="black" points="434.62,-329.88 434.62,-353.62 732.62,-353.62 732.62,-329.88 434.62,-329.88"/>
<text xml:space="preserve" text-anchor="start" x="573.12" y="-336.32" font-family="arial" font-size="14.00">W2</text>
<polygon fill="none" stroke="black" points="434.62,-306.12 434.62,-329.88 516.21,-329.88 516.21,-306.12 434.62,-306.12"/>
<text xml:space="preserve" text-anchor="start" x="468.29" y="-312.57" font-family="arial" font-size="14.00">4x</text>
<polygon fill="none" stroke="black" points="516.21,-306.12 516.21,-329.88 642.04,-329.88 642.04,-306.12 516.21,-306.12"/>
<text xml:space="preserve" text-anchor="start" x="549.88" y="-312.57" font-family="arial" font-size="14.00">0.25 mm²</text>
<polygon fill="none" stroke="black" points="642.04,-306.12 642.04,-329.88 732.62,-329.88 732.62,-306.12 642.04,-306.12"/>
<text xml:space="preserve" text-anchor="start" x="675.71" y="-312.57" font-family="arial" font-size="14.00">1 m</text>
<text xml:space="preserve" text-anchor="start" x="478.17" y="-290.82" font-family="arial" font-size="14.00"> </text>
<text xml:space="preserve" text-anchor="start" x="466.17" y="-271.07" font-family="arial" font-size="14.00">X1:1</text>
<text xml:space="preserve" text-anchor="start" x="557.75" y="-271.07" font-family="arial" font-size="14.00"> &#160;&#160;&#160;&#160;YE &#160;&#160;&#160;</text>
<text xml:space="preserve" text-anchor="start" x="673.33" y="-271.07" font-family="arial" font-size="14.00">X3:1</text>
<polygon fill="#000000" stroke="none" points="434.62,-264.62 434.62,-266.62 732.62,-266.62 732.62,-264.62 434.62,-264.62"/>
<polygon fill="#ffff00" stroke="none" points="434.62,-262.62 434.62,-264.62 732.62,-264.62 732.62,-262.62 434.62,-262.62"/>
<polygon fill="#000000" stroke="none" points="434.62,-260.62 434.62,-262.62 732.62,-262.62 732.62,-260.62 434.62,-260.62"/>
<text xml:space="preserve" text-anchor="start" x="438.88" y="-243.32" font-family="arial" font-size="14.00">P/N: WIRE1</text>
<text xml:space="preserve" text-anchor="start" x="516.88" y="-243.32" font-family="arial" font-size="14.00">WiresCo: W1&#45;YE</text>
<text xml:space="preserve" text-anchor="start" x="624.88" y="-243.32" font-family="arial" font-size="14.00">WireShack: 1001</text>
<text xml:space="preserve" text-anchor="start" x="466.17" y="-221.57" font-family="arial" font-size="14.00">X1:2</text>
<text xml:space="preserve" text-anchor="start" x="557.75" y="-221.57" font-family="arial" font-size="14.00"> &#160;&#160;&#160;&#160;BK &#160;&#160;&#160;</text>
<text xml:space="preserve" text-anchor="start" x="673.33" y="-221.57" font-family="arial" font-size="14.00">X3:2</text>
<polygon fill="#000000" stroke="none" points="434.62,-215.12 434.62,-217.12 732.62,-217.12 732.62,-215.12 434.62,-215.12"/>
<polygon fill="#000000" stroke="none" points="434.62,-213.12 434.62,-215.12 732.62,-215.12 732.62,-213.12 434.62,-213.12"/>
<polygon fill="#000000" stroke="none" points="434.62,-211.12 434.62,-213.12 732.62,-213.12 732.62,-211.12 434.62,-211.12"/>
<text xml:space="preserve" text-anchor="start" x="438.88" y="-193.82" font-family="arial" font-size="14.00">P/N: WIRE2</text>
<text xml:space="preserve" text-anchor="start" x="516.88" y="-193.82" font-family="arial" font-size="14.00">WiresCo: W1&#45;BK</text>
<text xml:space="preserve" text-anchor="start" x="624.88" y="-193.82" font-family="arial" font-size="14.00">WireShack: 1002</text>
<text xml:space="preserve" text-anchor="start" x="466.17" y="-172.07" font-family="arial" font-size="14.00">X1:3</text>
<text xml:space="preserve" text-anchor="start" x="557.75" y="-172.07" font-family="arial" font-size="14.00"> &#160;&#160;&#160;&#160;BK &#160;&#160;&#160;</text>
<text xml:space="preserve" text-anchor="start" x="673.33" y="-172.07" font-family="arial" font-size="14.00">X3:3</text>
<polygon fill="#000000" stroke="none" points="434.62,-165.62 434.62,-167.62 732.62,-167.62 732.62,-165.62 434.62,-165.62"/>
<polygon fill="#000000" stroke="none" points="434.62,-163.62 434.62,-165.62 732.62,-165.62 732.62,-163.62 434.62,-163.62"/>
<polygon fill="#000000" stroke="none" points="434.62,-161.62 434.62,-163.62 732.62,-163.62 732.62,-161.62 434.62,-161.62"/>
<text xml:space="preserve" text-anchor="start" x="438.88" y="-144.32" font-family="arial" font-size="14.00">P/N: WIRE2</text>
<text xml:space="preserve" text-anchor="start" x="516.88" y="-144.32" font-family="arial" font-size="14.00">WiresCo: W1&#45;BK</text>
<text xml:space="preserve" text-anchor="start" x="624.88" y="-144.32" font-family="arial" font-size="14.00">WireShack: 1002</text>
<text xml:space="preserve" text-anchor="start" x="466.17" y="-122.58" font-family="arial" font-size="14.00">X1:4</text>
<text xml:space="preserve" text-anchor="start" x="557" y="-122.58" font-family="arial" font-size="14.00"> &#160;&#160;&#160;&#160;RD &#160;&#160;&#160;</text>
<text xml:space="preserve" text-anchor="start" x="673.33" y="-122.58" font-family="arial" font-size="14.00">X3:4</text>
<polygon fill="#000000" stroke="none" points="434.62,-116.12 434.62,-118.12 732.62,-118.12 732.62,-116.12 434.62,-116.12"/>
<polygon fill="#ff0000" stroke="none" points="434.62,-114.12 434.62,-116.12 732.62,-116.12 732.62,-114.12 434.62,-114.12"/>
<polygon fill="#000000" stroke="none" points="434.62,-112.12 434.62,-114.12 732.62,-114.12 732.62,-112.12 434.62,-112.12"/>
<text xml:space="preserve" text-anchor="start" x="438.62" y="-94.83" font-family="arial" font-size="14.00">P/N: WIRE3</text>
<text xml:space="preserve" text-anchor="start" x="516.12" y="-94.83" font-family="arial" font-size="14.00">WiresCo: W1&#45;RD</text>
<text xml:space="preserve" text-anchor="start" x="625.12" y="-94.83" font-family="arial" font-size="14.00">WireShack: 1009</text>
<text xml:space="preserve" text-anchor="start" x="478.17" y="-73.08" font-family="arial" font-size="14.00"> </text>
<polygon fill="none" stroke="black" points="434.62,-44.88 434.62,-68.62 732.62,-68.62 732.62,-44.88 434.62,-44.88"/>
<text xml:space="preserve" text-anchor="start" x="515" y="-51.33" font-family="arial" font-size="14.00">Additional components</text>
<polygon fill="none" stroke="black" points="434.62,-5.38 434.62,-44.88 732.62,-44.88 732.62,-5.38 434.62,-5.38"/>
<text xml:space="preserve" text-anchor="start" x="438.62" y="-27.57" font-family="arial" font-size="14.00">1 m x Sleve, Braided nylon, black, 3mm</text>
<text xml:space="preserve" text-anchor="start" x="438.62" y="-11.82" font-family="arial" font-size="14.00">P/N: SLV&#45;1</text>
</g>
<!-- X1&#45;&#45;W2 -->
<g id="edge9" class="edge wv&#45;wire wv&#45;net&#45;W2&#45;w1 wv&#45;net&#45;X1&#45;p1">
<title>X1:e&#45;&#45;W2:w</title>
<path fill="none" stroke="#000000" stroke-width="2" d="M257,-364.88C345.93,-366.98 340.7,-263.73 433.62,-261.63"/>
<path fill="none" stroke="#ffff00" stroke-width="2" d="M257,-366.88C347.93,-366.88 342.7,-263.62 433.62,-263.63"/>
<path fill="none" stroke="#000000" stroke-width="2" d="M257,-368.87C349.93,-366.77 344.69,-263.52 433.62,-265.62"/>
</g>
<!-- X1&#45;&#45;W2 -->
<g id="edge11" class="edge wv&#45;wire wv&#45;net&#45;W2&#45;w2 wv&#45;net&#45;X1&#45;p2">
<title>X1:e&#45;&#45;W2:w</title>
<path fill="none" stroke="#000000" stroke-width="2" d="M257,-341.13C352.23,-343.4 334.44,-214.4 433.62,-212.13"/>
<path fill="none" stroke="#000000" stroke-width="2" d="M257,-343.13C354.21,-343.12 336.42,-214.13 433.62,-214.12"/>
<path fill="none" stroke="#000000" stroke-width="2" d="M257,-345.12C356.19,-342.85 338.4,-213.85 433.62,-216.12"/>
</g>
<!-- X1&#45;&#45;W2 -->
<g id="edge13" class="edge wv&#45;wire wv&#45;net&#45;W2&#45;w3 wv&#45;net&#45;X1&#45;p3">
<title>X1:e&#45;&#45;W2:w</title>
<path fill="none" stroke="#000000" stroke-width="2" d="M257,-317.38C359.41,-319.78 327.3,-165.03 433.62,-162.63"/>
<path fill="none" stroke="#000000" stroke-width="2" d="M257,-319.38C361.37,-319.38 329.26,-164.62 433.62,-164.62"/>
<path fill="none" stroke="#000000" stroke-width="2" d="M257,-321.37C363.33,-318.97 331.22,-164.22 433.62,-166.62"/>
</g>
<!-- X1&#45;&#45;W2 -->
<g id="edge15" class="edge wv&#45;wire wv&#45;net&#45;W2&#45;w4 wv&#45;net&#45;X1&#45;p4">
<title>X1:e&#45;&#45;W2:w</title>
<path fill="none" stroke="#000000" stroke-width="2" d="M257,-293.63C367.31,-296.14 319.45,-115.64 433.62,-113.13"/>
<path fill="none" stroke="#ff0000" stroke-width="2" d="M257,-295.63C369.24,-295.62 321.38,-115.13 433.62,-115.12"/>
<path fill="none" stroke="#000000" stroke-width="2" d="M257,-297.62C371.17,-295.11 323.32,-114.61 433.62,-117.12"/>
</g>
<!-- X2 -->
<g id="node2" class="node wv&#45;part wv&#45;dsg&#45;X2">
<title>X2</title>
<polygon fill="#ffffff" stroke="black" points="1208.75,-562 910.25,-562 910.25,-293 1208.75,-293 1208.75,-562"/>
<polygon fill="none" stroke="black" points="910.25,-538.25 910.25,-562 1208.75,-562 1208.75,-538.25 910.25,-538.25"/>
<text xml:space="preserve" text-anchor="start" x="1051.25" y="-544.7" font-family="arial" font-size="14.00">X2</text>
<polygon fill="none" stroke="black" points="910.25,-514.5 910.25,-538.25 986.5,-538.25 986.5,-514.5 910.25,-514.5"/>
<text xml:space="preserve" text-anchor="start" x="914.25" y="-520.95" font-family="arial" font-size="14.00">P/N: CON4</text>
<polygon fill="none" stroke="black" points="986.5,-514.5 986.5,-538.25 1098.75,-538.25 1098.75,-514.5 986.5,-514.5"/>
<text xml:space="preserve" text-anchor="start" x="990.5" y="-520.95" font-family="arial" font-size="14.00">Molex: 22013047</text>
<polygon fill="none" stroke="black" points="1098.75,-514.5 1098.75,-538.25 1208.75,-538.25 1208.75,-514.5 1098.75,-514.5"/>
<text xml:space="preserve" text-anchor="start" x="1102.75" y="-520.95" font-family="arial" font-size="14.00">Digimouse: 1234</text>
<polygon fill="none" stroke="black" points="910.25,-490.75 910.25,-514.5 1042.5,-514.5 1042.5,-490.75 910.25,-490.75"/>
<text xml:space="preserve" text-anchor="start" x="934" y="-497.2" font-family="arial" font-size="14.00">Molex KK 254</text>
<polygon fill="none" stroke="black" points="1042.5,-490.75 1042.5,-514.5 1131.25,-514.5 1131.25,-490.75 1042.5,-490.75"/>
<text xml:space="preserve" text-anchor="start" x="1066.25" y="-497.2" font-family="arial" font-size="14.00">female</text>
<polygon fill="none" stroke="black" points="1131.25,-490.75 1131.25,-514.5 1208.75,-514.5 1208.75,-490.75 1131.25,-490.75"/>
<text xml:space="preserve" text-anchor="start" x="1155" y="-497.2" font-family="arial" font-size="14.00">4&#45;pin</text>
<polygon fill="none" stroke="black" points="910.25,-467 910.25,-490.75 1208.75,-490.75 1208.75,-467 910.25,-467"/>
<text xml:space="preserve" text-anchor="start" x="1055.75" y="-473.45" font-family="arial" font-size="14.00">1</text>
<polygon fill="none" stroke="black" points="910.25,-443.25 910.25,-467 1208.75,-467 1208.75,-443.25 910.25,-443.25"/>
<text xml:space="preserve" text-anchor="start" x="1055.75" y="-449.7" font-family="arial" font-size="14.00">2</text>
<polygon fill="none" stroke="black" points="910.25,-419.5 910.25,-443.25 1208.75,-443.25 1208.75,-419.5 910.25,-419.5"/>
<text xml:space="preserve" text-anchor="start" x="1055.75" y="-425.95" font-family="arial" font-size="14.00">3</text>
<polygon fill="none" stroke="black" points="910.25,-395.75 910.25,-419.5 1208.75,-419.5 1208.75,-395.75 910.25,-395.75"/>
<text xml:space="preserve" text-anchor="start" x="1055.75" y="-402.2" font-family="arial" font-size="14.00">4</text>
<polygon fill="none" stroke="black" points="910.25,-372 910.25,-395.75 1208.75,-395.75 1208.75,-372 910.25,-372"/>
<text xml:space="preserve" text-anchor="start" x="990.88" y="-378.45" font-family="arial" font-size="14.00">Additional components</text>
<polygon fill="none" stroke="black" points="910.25,-332.5 910.25,-372 1208.75,-372 1208.75,-332.5 910.25,-332.5"/>
<text xml:space="preserve" text-anchor="start" x="914.25" y="-354.7" font-family="arial" font-size="14.00">4 x Crimp, Molex KK 254, 22&#45;30 AWG</text>
<text xml:space="preserve" text-anchor="start" x="914.25" y="-338.95" font-family="arial" font-size="14.00">Molex: 08500030</text>
<polygon fill="none" stroke="black" points="910.25,-293 910.25,-332.5 1208.75,-332.5 1208.75,-293 910.25,-293"/>
<text xml:space="preserve" text-anchor="start" x="914.25" y="-315.2" font-family="arial" font-size="14.00">1 x Test</text>
<text xml:space="preserve" text-anchor="start" x="914.25" y="-299.45" font-family="arial" font-size="14.00">P/N: ABC, Molex: 45454, Mousikey: 9999</text>
</g>
<!-- X3 -->
<g id="node3" class="node wv&#45;part wv&#45;dsg&#45;X3">
<title>X3</title>
<polygon fill="#ffffff" stroke="black" points="1188,-269 931,-269 931,0 1188,0 1188,-269"/>
<polygon fill="none" stroke="black" points="931,-245.25 931,-269 1188,-269 1188,-245.25 931,-245.25"/>
<text xml:space="preserve" text-anchor="start" x="1051.25" y="-251.7" font-family="arial" font-size="14.00">X3</text>
<polygon fill="none" stroke="black" points="931,-221.5 931,-245.25 1060.62,-245.25 1060.62,-221.5 931,-221.5"/>
<text xml:space="preserve" text-anchor="start" x="943.69" y="-227.95" font-family="arial" font-size="14.00">Molex: 22013047</text>
<polygon fill="none" stroke="black" points="1060.62,-221.5 1060.62,-245.25 1188,-245.25 1188,-221.5 1060.62,-221.5"/>
<text xml:space="preserve" text-anchor="start" x="1073.31" y="-227.95" font-family="arial" font-size="14.00">Digimouse: 1234</text>
<polygon fill="none" stroke="black" points="931,-197.75 931,-221.5 1049.42,-221.5 1049.42,-197.75 931,-197.75"/>
<text xml:space="preserve" text-anchor="start" x="947.83" y="-204.2" font-family="arial" font-size="14.00">Molex KK 254</text>
<polygon fill="none" stroke="black" points="1049.42,-197.75 1049.42,-221.5 1124.33,-221.5 1124.33,-197.75 1049.42,-197.75"/>
<text xml:space="preserve" text-anchor="start" x="1066.25" y="-204.2" font-family="arial" font-size="14.00">female</text>
<polygon fill="none" stroke="black" points="1124.33,-197.75 1124.33,-221.5 1188,-221.5 1188,-197.75 1124.33,-197.75"/>
<text xml:space="preserve" text-anchor="start" x="1141.17" y="-204.2" font-family="arial" font-size="14.00">4&#45;pin</text>
<polygon fill="none" stroke="black" points="931,-174 931,-197.75 1188,-197.75 1188,-174 931,-174"/>
<text xml:space="preserve" text-anchor="start" x="1055.75" y="-180.45" font-family="arial" font-size="14.00">1</text>
<polygon fill="none" stroke="black" points="931,-150.25 931,-174 1188,-174 1188,-150.25 931,-150.25"/>
<text xml:space="preserve" text-anchor="start" x="1055.75" y="-156.7" font-family="arial" font-size="14.00">2</text>
<polygon fill="none" stroke="black" points="931,-126.5 931,-150.25 1188,-150.25 1188,-126.5 931,-126.5"/>
<text xml:space="preserve" text-anchor="start" x="1055.75" y="-132.95" font-family="arial" font-size="14.00">3</text>
<polygon fill="none" stroke="black" points="931,-102.75 931,-126.5 1188,-126.5 1188,-102.75 931,-102.75"/>
<text xml:space="preserve" text-anchor="start" x="1055.75" y="-109.2" font-family="arial" font-size="14.00">4</text>
<polygon fill="none" stroke="black" points="931,-79 931,-102.75 1188,-102.75 1188,-79 931,-79"/>
<text xml:space="preserve" text-anchor="start" x="990.88" y="-85.45" font-family="arial" font-size="14.00">Additional components</text>
<polygon fill="none" stroke="black" points="931,-39.5 931,-79 1188,-79 1188,-39.5 931,-39.5"/>
<text xml:space="preserve" text-anchor="start" x="935" y="-61.7" font-family="arial" font-size="14.00">4 x Crimp, Molex KK 254, 22&#45;30 AWG</text>
<text xml:space="preserve" text-anchor="start" x="935" y="-45.95" font-family="arial" font-size="14.00">Molex: 08500030</text>
<polygon fill="none" stroke="black" points="931,0 931,-39.5 1188,-39.5 1188,0 931,0"/>
<text xml:space="preserve" text-anchor="start" x="935" y="-22.2" font-family="arial" font-size="14.00">1 x Test</text>
<text xml:space="preserve" text-anchor="start" x="935" y="-6.45" font-family="arial" font-size="14.00">P/N: ABC, Molex: 45454, Mousikey: 9999</text>
</g>
<!-- W1&#45;&#45;X2 -->
<g id="edge2" class="edge wv&#45;wire wv&#45;net&#45;W1&#45;w1 wv&#45;net&#45;X2&#45;p1">
<title>W1:e&#45;&#45;X2:w</title>
<path fill="none" stroke="#000000" stroke-width="2" d="M766.25,-475.63C830.41,-475.63 846.4,-476.88 910.25,-476.88"/>
<path fill="none" stroke="#895956" stroke-width="2" d="M766.25,-477.63C830.25,-477.62 846.25,-478.88 910.25,-478.88"/>
<path fill="none" stroke="#000000" stroke-width="2" d="M766.25,-479.62C830.1,-479.62 846.09,-480.87 910.25,-480.87"/>
</g>
<!-- W1&#45;&#45;X2 -->
<g id="edge4" class="edge wv&#45;wire wv&#45;net&#45;W1&#45;w2 wv&#45;net&#45;X2&#45;p2">
<title>W1:e&#45;&#45;X2:w</title>
<path fill="none" stroke="#000000" stroke-width="2" d="M766.25,-449.88C830.67,-449.92 846.63,-453.17 910.25,-453.13"/>
<path fill="none" stroke="#ff0000" stroke-width="2" d="M766.25,-451.88C830.27,-451.88 846.23,-455.12 910.25,-455.12"/>
<path fill="none" stroke="#000000" stroke-width="2" d="M766.25,-453.87C829.87,-453.83 845.83,-457.08 910.25,-457.12"/>
</g>
<!-- W1&#45;&#45;X2 -->
<g id="edge6" class="edge wv&#45;wire wv&#45;net&#45;W1&#45;w3 wv&#45;net&#45;X2&#45;p3">
<title>W1:e&#45;&#45;X2:w</title>
<path fill="none" stroke="#000000" stroke-width="2" d="M766.25,-424.13C830.92,-424.23 846.83,-429.48 910.25,-429.38"/>
<path fill="none" stroke="#ff8000" stroke-width="2" d="M766.25,-426.12C830.29,-426.12 846.21,-431.38 910.25,-431.37"/>
<path fill="none" stroke="#000000" stroke-width="2" d="M766.25,-428.12C829.67,-428.02 845.58,-433.27 910.25,-433.37"/>
</g>
<!-- W1&#45;&#45;X2 -->
<g id="edge8" class="edge wv&#45;wire wv&#45;net&#45;W1&#45;w4 wv&#45;net&#45;X2&#45;p4">
<title>W1:e&#45;&#45;X2:w</title>
<path fill="none" stroke="#000000" stroke-width="2" d="M766.25,-398.38C831.16,-398.56 847,-405.81 910.25,-405.63"/>
<path fill="none" stroke="#ffff00" stroke-width="2" d="M766.25,-400.38C830.33,-400.38 846.17,-407.62 910.25,-407.62"/>
<path fill="none" stroke="#000000" stroke-width="2" d="M766.25,-402.37C829.5,-402.19 845.34,-409.44 910.25,-409.62"/>
</g>
<!-- W2&#45;&#45;X3 -->
<g id="edge10" class="edge wv&#45;wire wv&#45;net&#45;W2&#45;w1 wv&#45;net&#45;X3&#45;p1">
<title>W2:e&#45;&#45;X3:w</title>
<path fill="none" stroke="#000000" stroke-width="2" d="M733.62,-261.63C825.51,-263.4 834.14,-185.65 930,-183.88"/>
<path fill="none" stroke="#ffff00" stroke-width="2" d="M733.62,-263.63C827.49,-263.62 836.13,-185.88 930,-185.87"/>
<path fill="none" stroke="#000000" stroke-width="2" d="M733.62,-265.62C829.48,-263.85 838.12,-186.1 930,-187.87"/>
</g>
<!-- W2&#45;&#45;X3 -->
<g id="edge12" class="edge wv&#45;wire wv&#45;net&#45;W2&#45;w2 wv&#45;net&#45;X3&#45;p2">
<title>W2:e&#45;&#45;X3:w</title>
<path fill="none" stroke="#000000" stroke-width="2" d="M733.62,-212.13C822,-213.54 837.8,-161.54 930,-160.13"/>
<path fill="none" stroke="#000000" stroke-width="2" d="M733.62,-214.12C823.91,-214.12 839.71,-162.12 930,-162.12"/>
<path fill="none" stroke="#000000" stroke-width="2" d="M733.62,-216.12C825.82,-214.71 841.63,-162.71 930,-164.12"/>
</g>
<!-- W2&#45;&#45;X3 -->
<g id="edge14" class="edge wv&#45;wire wv&#45;net&#45;W2&#45;w3 wv&#45;net&#45;X3&#45;p3">
<title>W2:e&#45;&#45;X3:w</title>
<path fill="none" stroke="#000000" stroke-width="2" d="M733.62,-162.63C820.1,-163.4 840.36,-137.15 930,-136.38"/>
<path fill="none" stroke="#000000" stroke-width="2" d="M733.62,-164.62C821.68,-164.63 841.95,-138.38 930,-138.37"/>
<path fill="none" stroke="#000000" stroke-width="2" d="M733.62,-166.62C823.26,-165.85 843.53,-139.6 930,-140.37"/>
</g>
<!-- W2&#45;&#45;X3 -->
<g id="edge16" class="edge wv&#45;wire wv&#45;net&#45;W2&#45;w4 wv&#45;net&#45;X3&#45;p4">
<title>W2:e&#45;&#45;X3:w</title>
<path fill="none" stroke="#000000" stroke-width="2" d="M733.62,-113.13C820.86,-113.13 842.68,-112.63 930,-112.63"/>
<path fill="none" stroke="#ff0000" stroke-width="2" d="M733.62,-115.13C820.9,-115.12 842.72,-114.62 930,-114.63"/>
<path fill="none" stroke="#000000" stroke-width="2" d="M733.62,-117.12C820.95,-117.12 842.77,-116.62 930,-116.62"/>
</g>
</g>
</svg>
