<?xml version="1.0" encoding="UTF-8" standalone="no"?>
<!DOCTYPE svg PUBLIC "-//W3C//DTD SVG 1.1//EN"
 "http://www.w3.org/Graphics/SVG/1.1/DTD/svg11.dtd">
<!-- Generated by graphviz version 14.1.1 (20251213.1925)
 -->
<!-- Pages: 1 -->
<svg width="864pt" height="473pt"
 viewBox="0.00 0.00 864.00 473.00" xmlns="http://www.w3.org/2000/svg" xmlns:xlink="http://www.w3.org/1999/xlink">
<g id="graph0" class="graph" transform="scale(1 1) rotate(0) translate(4 468.5)">
<polygon fill="#ffffff" stroke="none" points="-4,4 -4,-468.5 859.75,-468.5 859.75,4 -4,4"/>
<!-- X1 -->
<g id="node1" class="node wv&#45;part wv&#45;dsg&#45;X1">
<title>X1</title>
<polygon fill="#ffffff" stroke="black" points="177.75,-270.75 0,-270.75 0,-175.75 177.75,-175.75 177.75,-270.75"/>
<polygon fill="none" stroke="black" points="0,-247 0,-270.75 177.75,-270.75 177.75,-247 0,-247"/>
<text xml:space="preserve" text-anchor="start" x="80.62" y="-253.45" font-family="arial" font-size="14.00">X1</text>
<polygon fill="none" stroke="black" points="0,-223.25 0,-247 101.75,-247 101.75,-223.25 0,-223.25"/>
<text xml:space="preserve" text-anchor="start" x="4" y="-229.7" font-family="arial" font-size="14.00">Molex Micro&#45;Fit</text>
<polygon fill="none" stroke="black" points="101.75,-223.25 101.75,-247 139.75,-247 139.75,-223.25 101.75,-223.25"/>
<text xml:space="preserve" text-anchor="start" x="105.75" y="-229.7" font-family="arial" font-size="14.00">male</text>
<polygon fill="none" stroke="black" points="139.75,-223.25 139.75,-247 177.75,-247 177.75,-223.25 139.75,-223.25"/>
<text xml:space="preserve" text-anchor="start" x="143.75" y="-229.7" font-family="arial" font-size="14.00">2&#45;pin</text>
<polygon fill="none" stroke="black" points="0,-199.5 0,-223.25 100.5,-223.25 100.5,-199.5 0,-199.5"/>
<text xml:space="preserve" text-anchor="start" x="34.88" y="-205.95" font-family="arial" font-size="14.00">GND</text>
<polygon fill="none" stroke="black" points="100.5,-199.5 100.5,-223.25 177.75,-223.25 177.75,-199.5 100.5,-199.5"/>
<text xml:space="preserve" text-anchor="start" x="135.38" y="-205.95" font-family="arial" font-size="14.00">1</text>
<polygon fill="none" stroke="black" points="0,-175.75 0,-199.5 100.5,-199.5 100.5,-175.75 0,-175.75"/>
<text xml:space="preserve" text-anchor="start" x="36" y="-182.2" font-family="arial" font-size="14.00">VCC</text>
<polygon fill="none" stroke="black" points="100.5,-175.75 100.5,-199.5 177.75,-199.5 177.75,-175.75 100.5,-175.75"/>
<text xml:space="preserve" text-anchor="start" x="135.38" y="-182.2" font-family="arial" font-size="14.00">2</text>
</g>
<!-- W1 -->
<g id="node5" class="node wv&#45;part wv&#45;dsg&#45;W1">
<title>W1</title>
<polygon fill="#ffffff" stroke="black" points="522.75,-464.5 321.75,-464.5 321.75,-326 522.75,-326 522.75,-464.5"/>
<polygon fill="none" stroke="black" points="321.75,-440.75 321.75,-464.5 522.75,-464.5 522.75,-440.75 321.75,-440.75"/>
<text xml:space="preserve" text-anchor="start" x="411.75" y="-447.2" font-family="arial" font-size="14.00">W1</text>
<polygon fill="none" stroke="black" points="321.75,-417 321.75,-440.75 345.75,-440.75 345.75,-417 321.75,-417"/>
<text xml:space="preserve" text-anchor="start" x="326.62" y="-423.45" font-family="arial" font-size="14.00">2x</text>
<polygon fill="none" stroke="black" points="345.75,-417 345.75,-440.75 478.5,-440.75 478.5,-417 345.75,-417"/>
<text xml:space="preserve" text-anchor="start" x="350.62" y="-423.45" font-family="arial" font-size="14.00">0.25 mm² (24 AWG)</text>
<polygon fill="none" stroke="black" points="478.5,-417 478.5,-440.75 522.75,-440.75 522.75,-417 478.5,-417"/>
<text xml:space="preserve" text-anchor="start" x="483.38" y="-423.45" font-family="arial" font-size="14.00">0.2 m</text>
<text xml:space="preserve" text-anchor="start" x="353" y="-401.7" font-family="arial" font-size="14.00"> </text>
<text xml:space="preserve" text-anchor="start" x="323.75" y="-381.95" font-family="arial" font-size="14.00">X1:1:GND</text>
<text xml:space="preserve" text-anchor="start" x="390.75" y="-381.95" font-family="arial" font-size="14.00"> &#160;&#160;&#160;&#160;1:BK &#160;&#160;&#160;</text>
<text xml:space="preserve" text-anchor="start" x="458.5" y="-381.95" font-family="arial" font-size="14.00">X2:1:GND</text>
<polygon fill="#000000" stroke="none" points="321.75,-375.5 321.75,-377.5 522.75,-377.5 522.75,-375.5 321.75,-375.5"/>
<polygon fill="#000000" stroke="none" points="321.75,-373.5 321.75,-375.5 522.75,-375.5 522.75,-373.5 321.75,-373.5"/>
<polygon fill="#000000" stroke="none" points="321.75,-371.5 321.75,-373.5 522.75,-373.5 522.75,-371.5 321.75,-371.5"/>
<text xml:space="preserve" text-anchor="start" x="324.88" y="-356.2" font-family="arial" font-size="14.00">X1:2:VCC</text>
<text xml:space="preserve" text-anchor="start" x="390" y="-356.2" font-family="arial" font-size="14.00"> &#160;&#160;&#160;&#160;2:RD &#160;&#160;&#160;</text>
<text xml:space="preserve" text-anchor="start" x="459.62" y="-356.2" font-family="arial" font-size="14.00">X2:2:VCC</text>
<polygon fill="#000000" stroke="none" points="321.75,-349.75 321.75,-351.75 522.75,-351.75 522.75,-349.75 321.75,-349.75"/>
<polygon fill="#ff0000" stroke="none" points="321.75,-347.75 321.75,-349.75 522.75,-349.75 522.75,-347.75 321.75,-347.75"/>
<polygon fill="#000000" stroke="none" points="321.75,-345.75 321.75,-347.75 522.75,-347.75 522.75,-345.75 321.75,-345.75"/>
<text xml:space="preserve" text-anchor="start" x="353" y="-330.45" font-family="arial" font-size="14.00"> </text>
</g>
<!-- X1&#45;&#45;W1 -->
<g id="edge1" class="edge wv&#45;wire wv&#45;net&#45;W1&#45;w1 wv&#45;net&#45;X1&#45;p1">
<title>X1:e&#45;&#45;W1:w</title>
<path fill="none" stroke="#000000" stroke-width="2" d="M177.75,-209.38C276.37,-211.95 226.96,-375.08 321.75,-372.5"/>
<path fill="none" stroke="#000000" stroke-width="2" d="M177.75,-211.38C274.46,-211.38 225.04,-374.5 321.75,-374.5"/>
<path fill="none" stroke="#000000" stroke-width="2" d="M177.75,-213.37C272.54,-210.8 223.13,-373.92 321.75,-376.5"/>
</g>
<!-- X1&#45;&#45;W1 -->
<g id="edge3" class="edge wv&#45;wire wv&#45;net&#45;W1&#45;w2 wv&#45;net&#45;X1&#45;p2">
<title>X1:e&#45;&#45;W1:w</title>
<path fill="none" stroke="#000000" stroke-width="2" d="M177.75,-185.63C275.71,-188.2 227.62,-349.32 321.75,-346.75"/>
<path fill="none" stroke="#ff0000" stroke-width="2" d="M177.75,-187.62C273.79,-187.62 225.71,-348.75 321.75,-348.75"/>
<path fill="none" stroke="#000000" stroke-width="2" d="M177.75,-189.62C271.88,-187.05 223.79,-348.18 321.75,-350.75"/>
</g>
<!-- W2 -->
<g id="node6" class="node wv&#45;part wv&#45;dsg&#45;W2">
<title>W2</title>
<polygon fill="#ffffff" stroke="black" points="522.75,-301.5 321.75,-301.5 321.75,-163 522.75,-163 522.75,-301.5"/>
<polygon fill="none" stroke="black" points="321.75,-277.75 321.75,-301.5 522.75,-301.5 522.75,-277.75 321.75,-277.75"/>
<text xml:space="preserve" text-anchor="start" x="411.75" y="-284.2" font-family="arial" font-size="14.00">W2</text>
<polygon fill="none" stroke="black" points="321.75,-254 321.75,-277.75 345.75,-277.75 345.75,-254 321.75,-254"/>
<text xml:space="preserve" text-anchor="start" x="326.62" y="-260.45" font-family="arial" font-size="14.00">2x</text>
<polygon fill="none" stroke="black" points="345.75,-254 345.75,-277.75 478.5,-277.75 478.5,-254 345.75,-254"/>
<text xml:space="preserve" text-anchor="start" x="350.62" y="-260.45" font-family="arial" font-size="14.00">0.25 mm² (24 AWG)</text>
<polygon fill="none" stroke="black" points="478.5,-254 478.5,-277.75 522.75,-277.75 522.75,-254 478.5,-254"/>
<text xml:space="preserve" text-anchor="start" x="483.38" y="-260.45" font-family="arial" font-size="14.00">0.2 m</text>
<text xml:space="preserve" text-anchor="start" x="353" y="-238.7" font-family="arial" font-size="14.00"> </text>
<text xml:space="preserve" text-anchor="start" x="323.75" y="-218.95" font-family="arial" font-size="14.00">X1:1:GND</text>
<text xml:space="preserve" text-anchor="start" x="390.75" y="-218.95" font-family="arial" font-size="14.00"> &#160;&#160;&#160;&#160;1:BK &#160;&#160;&#160;</text>
<text xml:space="preserve" text-anchor="start" x="458.5" y="-218.95" font-family="arial" font-size="14.00">X3:1:GND</text>
<polygon fill="#000000" stroke="none" points="321.75,-212.5 321.75,-214.5 522.75,-214.5 522.75,-212.5 321.75,-212.5"/>
<polygon fill="#000000" stroke="none" points="321.75,-210.5 321.75,-212.5 522.75,-212.5 522.75,-210.5 321.75,-210.5"/>
<polygon fill="#000000" stroke="none" points="321.75,-208.5 321.75,-210.5 522.75,-210.5 522.75,-208.5 321.75,-208.5"/>
<text xml:space="preserve" text-anchor="start" x="324.88" y="-193.2" font-family="arial" font-size="14.00">X1:2:VCC</text>
<text xml:space="preserve" text-anchor="start" x="390" y="-193.2" font-family="arial" font-size="14.00"> &#160;&#160;&#160;&#160;2:RD &#160;&#160;&#160;</text>
<text xml:space="preserve" text-anchor="start" x="459.62" y="-193.2" font-family="arial" font-size="14.00">X3:2:VCC</text>
<polygon fill="#000000" stroke="none" points="321.75,-186.75 321.75,-188.75 522.75,-188.75 522.75,-186.75 321.75,-186.75"/>
<polygon fill="#ff0000" stroke="none" points="321.75,-184.75 321.75,-186.75 522.75,-186.75 522.75,-184.75 321.75,-184.75"/>
<polygon fill="#000000" stroke="none" points="321.75,-182.75 321.75,-184.75 522.75,-184.75 522.75,-182.75 321.75,-182.75"/>
<text xml:space="preserve" text-anchor="start" x="353" y="-167.45" font-family="arial" font-size="14.00"> </text>
</g>
<!-- X1&#45;&#45;W2 -->
<g id="edge5" class="edge wv&#45;wire wv&#45;net&#45;W2&#45;w1 wv&#45;net&#45;X1&#45;p1">
<title>X1:e&#45;&#45;W2:w</title>
<path fill="none" stroke="#000000" stroke-width="2" d="M177.75,-209.38C241.77,-209.38 257.77,-209.5 321.75,-209.5"/>
<path fill="none" stroke="#000000" stroke-width="2" d="M177.75,-211.38C241.75,-211.38 257.75,-211.5 321.75,-211.5"/>
<path fill="none" stroke="#000000" stroke-width="2" d="M177.75,-213.37C241.73,-213.37 257.73,-213.5 321.75,-213.5"/>
</g>
<!-- X1&#45;&#45;W2 -->
<g id="edge7" class="edge wv&#45;wire wv&#45;net&#45;W2&#45;w2 wv&#45;net&#45;X1&#45;p2">
<title>X1:e&#45;&#45;W2:w</title>
<path fill="none" stroke="#000000" stroke-width="2" d="M177.75,-185.63C241.52,-185.64 257.51,-183.76 321.75,-183.75"/>
<path fill="none" stroke="#ff0000" stroke-width="2" d="M177.75,-187.62C241.76,-187.62 257.74,-185.75 321.75,-185.75"/>
<path fill="none" stroke="#000000" stroke-width="2" d="M177.75,-189.62C241.99,-189.61 257.98,-187.74 321.75,-187.75"/>
</g>
<!-- W3 -->
<g id="node7" class="node wv&#45;part wv&#45;dsg&#45;W3">
<title>W3</title>
<polygon fill="#ffffff" stroke="black" points="522.75,-138.5 321.75,-138.5 321.75,0 522.75,0 522.75,-138.5"/>
<polygon fill="none" stroke="black" points="321.75,-114.75 321.75,-138.5 522.75,-138.5 522.75,-114.75 321.75,-114.75"/>
<text xml:space="preserve" text-anchor="start" x="411.75" y="-121.2" font-family="arial" font-size="14.00">W3</text>
<polygon fill="none" stroke="black" points="321.75,-91 321.75,-114.75 345.75,-114.75 345.75,-91 321.75,-91"/>
<text xml:space="preserve" text-anchor="start" x="326.62" y="-97.45" font-family="arial" font-size="14.00">2x</text>
<polygon fill="none" stroke="black" points="345.75,-91 345.75,-114.75 478.5,-114.75 478.5,-91 345.75,-91"/>
<text xml:space="preserve" text-anchor="start" x="350.62" y="-97.45" font-family="arial" font-size="14.00">20 AWG (0.75 mm²)</text>
<polygon fill="none" stroke="black" points="478.5,-91 478.5,-114.75 522.75,-114.75 522.75,-91 478.5,-91"/>
<text xml:space="preserve" text-anchor="start" x="483.38" y="-97.45" font-family="arial" font-size="14.00">0.2 m</text>
<text xml:space="preserve" text-anchor="start" x="353" y="-75.7" font-family="arial" font-size="14.00"> </text>
<text xml:space="preserve" text-anchor="start" x="323.75" y="-55.95" font-family="arial" font-size="14.00">X1:1:GND</text>
<text xml:space="preserve" text-anchor="start" x="390.75" y="-55.95" font-family="arial" font-size="14.00"> &#160;&#160;&#160;&#160;1:BK &#160;&#160;&#160;</text>
<text xml:space="preserve" text-anchor="start" x="458.5" y="-55.95" font-family="arial" font-size="14.00">X4:1:GND</text>
<polygon fill="#000000" stroke="none" points="321.75,-49.5 321.75,-51.5 522.75,-51.5 522.75,-49.5 321.75,-49.5"/>
<polygon fill="#000000" stroke="none" points="321.75,-47.5 321.75,-49.5 522.75,-49.5 522.75,-47.5 321.75,-47.5"/>
<polygon fill="#000000" stroke="none" points="321.75,-45.5 321.75,-47.5 522.75,-47.5 522.75,-45.5 321.75,-45.5"/>
<text xml:space="preserve" text-anchor="start" x="324.88" y="-30.2" font-family="arial" font-size="14.00">X1:2:VCC</text>
<text xml:space="preserve" text-anchor="start" x="390" y="-30.2" font-family="arial" font-size="14.00"> &#160;&#160;&#160;&#160;2:RD &#160;&#160;&#160;</text>
<text xml:space="preserve" text-anchor="start" x="459.62" y="-30.2" font-family="arial" font-size="14.00">X4:2:VCC</text>
<polygon fill="#000000" stroke="none" points="321.75,-23.75 321.75,-25.75 522.75,-25.75 522.75,-23.75 321.75,-23.75"/>
<polygon fill="#ff0000" stroke="none" points="321.75,-21.75 321.75,-23.75 522.75,-23.75 522.75,-21.75 321.75,-21.75"/>
<polygon fill="#000000" stroke="none" points="321.75,-19.75 321.75,-21.75 522.75,-21.75 522.75,-19.75 321.75,-19.75"/>
<text xml:space="preserve" text-anchor="start" x="353" y="-4.45" font-family="arial" font-size="14.00"> </text>
</g>
<!-- X1&#45;&#45;W3 -->
<g id="edge9" class="edge wv&#45;wire wv&#45;net&#45;W3&#45;w1 wv&#45;net&#45;X1&#45;p1">
<title>X1:e&#45;&#45;W3:w</title>
<path fill="none" stroke="#000000" stroke-width="2" d="M177.75,-209.38C272.46,-211.95 223.21,-49.08 321.75,-46.5"/>
<path fill="none" stroke="#000000" stroke-width="2" d="M177.75,-211.37C274.37,-211.37 225.13,-48.5 321.75,-48.5"/>
<path fill="none" stroke="#000000" stroke-width="2" d="M177.75,-213.37C276.29,-210.8 227.04,-47.92 321.75,-50.5"/>
</g>
<!-- X1&#45;&#45;W3 -->
<g id="edge11" class="edge wv&#45;wire wv&#45;net&#45;W3&#45;w2 wv&#45;net&#45;X1&#45;p2">
<title>X1:e&#45;&#45;W3:w</title>
<path fill="none" stroke="#000000" stroke-width="2" d="M177.75,-185.63C273.13,-188.21 222.55,-23.34 321.75,-20.75"/>
<path fill="none" stroke="#ff0000" stroke-width="2" d="M177.75,-187.63C275.04,-187.62 224.46,-22.75 321.75,-22.75"/>
<path fill="none" stroke="#000000" stroke-width="2" d="M177.75,-189.62C276.95,-187.04 226.37,-22.16 321.75,-24.75"/>
</g>
<!-- X2 -->
<g id="node2" class="node wv&#45;part wv&#45;dsg&#45;X2">
<title>X2</title>
<polygon fill="#ffffff" stroke="black" points="855.75,-433.75 666.75,-433.75 666.75,-338.75 855.75,-338.75 855.75,-433.75"/>
<polygon fill="none" stroke="black" points="666.75,-410 666.75,-433.75 855.75,-433.75 855.75,-410 666.75,-410"/>
<text xml:space="preserve" text-anchor="start" x="753" y="-416.45" font-family="arial" font-size="14.00">X2</text>
<polygon fill="none" stroke="black" points="666.75,-386.25 666.75,-410 768.5,-410 768.5,-386.25 666.75,-386.25"/>
<text xml:space="preserve" text-anchor="start" x="670.75" y="-392.7" font-family="arial" font-size="14.00">Molex Micro&#45;Fit</text>
<polygon fill="none" stroke="black" points="768.5,-386.25 768.5,-410 817.75,-410 817.75,-386.25 768.5,-386.25"/>
<text xml:space="preserve" text-anchor="start" x="772.5" y="-392.7" font-family="arial" font-size="14.00">female</text>
<polygon fill="none" stroke="black" points="817.75,-386.25 817.75,-410 855.75,-410 855.75,-386.25 817.75,-386.25"/>
<text xml:space="preserve" text-anchor="start" x="821.75" y="-392.7" font-family="arial" font-size="14.00">2&#45;pin</text>
<polygon fill="none" stroke="black" points="666.75,-362.5 666.75,-386.25 749.62,-386.25 749.62,-362.5 666.75,-362.5"/>
<text xml:space="preserve" text-anchor="start" x="704.44" y="-368.95" font-family="arial" font-size="14.00">1</text>
<polygon fill="none" stroke="black" points="749.62,-362.5 749.62,-386.25 855.75,-386.25 855.75,-362.5 749.62,-362.5"/>
<text xml:space="preserve" text-anchor="start" x="787.31" y="-368.95" font-family="arial" font-size="14.00">GND</text>
<polygon fill="none" stroke="black" points="666.75,-338.75 666.75,-362.5 749.62,-362.5 749.62,-338.75 666.75,-338.75"/>
<text xml:space="preserve" text-anchor="start" x="704.44" y="-345.2" font-family="arial" font-size="14.00">2</text>
<polygon fill="none" stroke="black" points="749.62,-338.75 749.62,-362.5 855.75,-362.5 855.75,-338.75 749.62,-338.75"/>
<text xml:space="preserve" text-anchor="start" x="788.44" y="-345.2" font-family="arial" font-size="14.00">VCC</text>
</g>
<!-- X3 -->
<g id="node3" class="node wv&#45;part wv&#45;dsg&#45;X3">
<title>X3</title>
<polygon fill="#ffffff" stroke="black" points="855.75,-270.75 666.75,-270.75 666.75,-175.75 855.75,-175.75 855.75,-270.75"/>
<polygon fill="none" stroke="black" points="666.75,-247 666.75,-270.75 855.75,-270.75 855.75,-247 666.75,-247"/>
<text xml:space="preserve" text-anchor="start" x="753" y="-253.45" font-family="arial" font-size="14.00">X3</text>
<polygon fill="none" stroke="black" points="666.75,-223.25 666.75,-247 768.5,-247 768.5,-223.25 666.75,-223.25"/>
<text xml:space="preserve" text-anchor="start" x="670.75" y="-229.7" font-family="arial" font-size="14.00">Molex Micro&#45;Fit</text>
<polygon fill="none" stroke="black" points="768.5,-223.25 768.5,-247 817.75,-247 817.75,-223.25 768.5,-223.25"/>
<text xml:space="preserve" text-anchor="start" x="772.5" y="-229.7" font-family="arial" font-size="14.00">female</text>
<polygon fill="none" stroke="black" points="817.75,-223.25 817.75,-247 855.75,-247 855.75,-223.25 817.75,-223.25"/>
<text xml:space="preserve" text-anchor="start" x="821.75" y="-229.7" font-family="arial" font-size="14.00">2&#45;pin</text>
<polygon fill="none" stroke="black" points="666.75,-199.5 666.75,-223.25 749.62,-223.25 749.62,-199.5 666.75,-199.5"/>
<text xml:space="preserve" text-anchor="start" x="704.44" y="-205.95" font-family="arial" font-size="14.00">1</text>
<polygon fill="none" stroke="black" points="749.62,-199.5 749.62,-223.25 855.75,-223.25 855.75,-199.5 749.62,-199.5"/>
<text xml:space="preserve" text-anchor="start" x="787.31" y="-205.95" font-family="arial" font-size="14.00">GND</text>
<polygon fill="none" stroke="black" points="666.75,-175.75 666.75,-199.5 749.62,-199.5 749.62,-175.75 666.75,-175.75"/>
<text xml:space="preserve" text-anchor="start" x="704.44" y="-182.2" font-family="arial" font-size="14.00">2</text>
<polygon fill="none" stroke="black" points="749.62,-175.75 749.62,-199.5 855.75,-199.5 855.75,-175.75 749.62,-175.75"/>
<text xml:space="preserve" text-anchor="start" x="788.44" y="-182.2" font-family="arial" font-size="14.00">VCC</text>
</g>
<!-- X4 -->
<g id="node4" class="node wv&#45;part wv&#45;dsg&#45;X4">
<title>X4</title>
<polygon fill="#ffffff" stroke="black" points="855.75,-107.75 666.75,-107.75 666.75,-12.75 855.75,-12.75 855.75,-107.75"/>
<polygon fill="none" stroke="black" points="666.75,-84 666.75,-107.75 855.75,-107.75 855.75,-84 666.75,-84"/>
<text xml:space="preserve" text-anchor="start" x="753" y="-90.45" font-family="arial" font-size="14.00">X4</text>
<polygon fill="none" stroke="black" points="666.75,-60.25 666.75,-84 768.5,-84 768.5,-60.25 666.75,-60.25"/>
<text xml:space="preserve" text-anchor="start" x="670.75" y="-66.7" font-family="arial" font-size="14.00">Molex Micro&#45;Fit</text>
<polygon fill="none" stroke="black" points="768.5,-60.25 768.5,-84 817.75,-84 817.75,-60.25 768.5,-60.25"/>
<text xml:space="preserve" text-anchor="start" x="772.5" y="-66.7" font-family="arial" font-size="14.00">female</text>
<polygon fill="none" stroke="black" points="817.75,-60.25 817.75,-84 855.75,-84 855.75,-60.25 817.75,-60.25"/>
<text xml:space="preserve" text-anchor="start" x="821.75" y="-66.7" font-family="arial" font-size="14.00">2&#45;pin</text>
<polygon fill="none" stroke="black" points="666.75,-36.5 666.75,-60.25 749.62,-60.25 749.62,-36.5 666.75,-36.5"/>
<text xml:space="preserve" text-anchor="start" x="704.44" y="-42.95" font-family="arial" font-size="14.00">1</text>
<polygon fill="none" stroke="black" points="749.62,-36.5 749.62,-60.25 855.75,-60.25 855.75,-36.5 749.62,-36.5"/>
<text xml:space="preserve" text-anchor="start" x="787.31" y="-42.95" font-family="arial" font-size="14.00">GND</text>
<polygon fill="none" stroke="black" points="666.75,-12.75 666.75,-36.5 749.62,-36.5 749.62,-12.75 666.75,-12.75"/>
<text xml:space="preserve" text-anchor="start" x="704.44" y="-19.2" font-family="arial" font-size="14.00">2</text>
<polygon fill="none" stroke="black" points="749.62,-12.75 749.62,-36.5 855.75,-36.5 855.75,-12.75 749.62,-12.75"/>
<text xml:space="preserve" text-anchor="start" x="788.44" y="-19.2" font-family="arial" font-size="14.00">VCC</text>
</g>
<!-- W1&#45;&#45;X2 -->
<g id="edge2" class="edge wv&#45;wire wv&#45;net&#45;W1&#45;w1 wv&#45;net&#45;X2&#45;p1">
<title>W1:e&#45;&#45;X2:w</title>
<path fill="none" stroke="#000000" stroke-width="2" d="M522.75,-372.5C586.73,-372.5 602.73,-372.38 666.75,-372.38"/>
<path fill="none" stroke="#000000" stroke-width="2" d="M522.75,-374.5C586.75,-374.5 602.75,-374.37 666.75,-374.38"/>
<path fill="none" stroke="#000000" stroke-width="2" d="M522.75,-376.5C586.77,-376.5 602.77,-376.37 666.75,-376.37"/>
</g>
<!-- W1&#45;&#45;X2 -->
<g id="edge4" class="edge wv&#45;wire wv&#45;net&#45;W1&#45;w2 wv&#45;net&#45;X2&#45;p2">
<title>W1:e&#45;&#45;X2:w</title>
<path fill="none" stroke="#000000" stroke-width="2" d="M522.75,-346.75C586.99,-346.76 602.98,-348.64 666.75,-348.63"/>
<path fill="none" stroke="#ff0000" stroke-width="2" d="M522.75,-348.75C586.76,-348.75 602.74,-350.62 666.75,-350.62"/>
<path fill="none" stroke="#000000" stroke-width="2" d="M522.75,-350.75C586.52,-350.74 602.51,-352.61 666.75,-352.62"/>
</g>
<!-- W2&#45;&#45;X3 -->
<g id="edge6" class="edge wv&#45;wire wv&#45;net&#45;W2&#45;w1 wv&#45;net&#45;X3&#45;p1">
<title>W2:e&#45;&#45;X3:w</title>
<path fill="none" stroke="#000000" stroke-width="2" d="M522.75,-209.5C586.73,-209.5 602.73,-209.38 666.75,-209.38"/>
<path fill="none" stroke="#000000" stroke-width="2" d="M522.75,-211.5C586.75,-211.5 602.75,-211.38 666.75,-211.38"/>
<path fill="none" stroke="#000000" stroke-width="2" d="M522.75,-213.5C586.77,-213.5 602.77,-213.37 666.75,-213.37"/>
</g>
<!-- W2&#45;&#45;X3 -->
<g id="edge8" class="edge wv&#45;wire wv&#45;net&#45;W2&#45;w2 wv&#45;net&#45;X3&#45;p2">
<title>W2:e&#45;&#45;X3:w</title>
<path fill="none" stroke="#000000" stroke-width="2" d="M522.75,-183.75C586.99,-183.76 602.98,-185.64 666.75,-185.63"/>
<path fill="none" stroke="#ff0000" stroke-width="2" d="M522.75,-185.75C586.76,-185.75 602.74,-187.62 666.75,-187.62"/>
<path fill="none" stroke="#000000" stroke-width="2" d="M522.75,-187.75C586.52,-187.74 602.51,-189.61 666.75,-189.62"/>
</g>
<!-- W3&#45;&#45;X4 -->
<g id="edge10" class="edge wv&#45;wire wv&#45;net&#45;W3&#45;w1 wv&#45;net&#45;X4&#45;p1">
<title>W3:e&#45;&#45;X4:w</title>
<path fill="none" stroke="#000000" stroke-width="2" d="M522.75,-46.5C586.73,-46.5 602.73,-46.38 666.75,-46.38"/>
<path fill="none" stroke="#000000" stroke-width="2" d="M522.75,-48.5C586.75,-48.5 602.75,-48.38 666.75,-48.38"/>
<path fill="none" stroke="#000000" stroke-width="2" d="M522.75,-50.5C586.77,-50.5 602.77,-50.37 666.75,-50.37"/>
</g>
<!-- W3&#45;&#45;X4 -->
<g id="edge12" class="edge wv&#45;wire wv&#45;net&#45;W3&#45;w2 wv&#45;net&#45;X4&#45;p2">
<title>W3:e&#45;&#45;X4:w</title>
<path fill="none" stroke="#000000" stroke-width="2" d="M522.75,-20.75C586.99,-20.76 602.98,-22.64 666.75,-22.63"/>
<path fill="none" stroke="#ff0000" stroke-width="2" d="M522.75,-22.75C586.76,-22.75 602.74,-24.63 666.75,-24.62"/>
<path fill="none" stroke="#000000" stroke-width="2" d="M522.75,-24.75C586.52,-24.74 602.51,-26.61 666.75,-26.62"/>
</g>
</g>
</svg>
